<?xml version="1.0" encoding="UTF-8" standalone="no"?>
<!-- Created with Inkscape (http://www.inkscape.org/) -->

<svg
   xmlns:dc="http://purl.org/dc/elements/1.1/"
   xmlns:cc="http://creativecommons.org/ns#"
   xmlns:rdf="http://www.w3.org/1999/02/22-rdf-syntax-ns#"
   xmlns:svg="http://www.w3.org/2000/svg"
   xmlns="http://www.w3.org/2000/svg"
   xmlns:sodipodi="http://sodipodi.sourceforge.net/DTD/sodipodi-0.dtd"
   xmlns:inkscape="http://www.inkscape.org/namespaces/inkscape"
   width="793.70081"
   height="1122.5197"
   viewBox="0 0 210 297"
   version="1.1"
   id="svg8"
   inkscape:version="0.92.2 5c3e80d, 2017-08-06"
   sodipodi:docname="logo.svg">
  <defs
     id="defs2" />
  <sodipodi:namedview
     id="base"
     pagecolor="#ffffff"
     bordercolor="#666666"
     borderopacity="1.0"
     inkscape:pageopacity="0.0"
     inkscape:pageshadow="2"
     inkscape:zoom="0.88208693"
     inkscape:cx="313.87765"
     inkscape:cy="-274.00231"
     inkscape:document-units="px"
     inkscape:current-layer="layer1"
     showgrid="false"
     showborder="false"
     units="px"
     showguides="true"
     inkscape:guide-bbox="true"
     inkscape:snap-object-midpoints="true"
     inkscape:object-nodes="true"
     inkscape:object-paths="true"
     inkscape:window-width="1920"
     inkscape:window-height="1178"
     inkscape:window-x="0"
     inkscape:window-y="0"
     inkscape:window-maximized="1"
     inkscape:snap-intersection-paths="true"
     inkscape:snap-smooth-nodes="true"
     inkscape:snap-to-guides="true"
     inkscape:snap-nodes="false"
     inkscape:snap-global="false"
     inkscape:snap-bbox="false"
     inkscape:bbox-paths="true"
     inkscape:bbox-nodes="true"
     inkscape:snap-bbox-edge-midpoints="true"
     inkscape:snap-bbox-midpoints="true"
     inkscape:snap-others="true"
     inkscape:measure-start="-67.4503,-204.653"
     inkscape:measure-end="-68.3711,-199.243"
     inkscape:pagecheckerboard="true" />
  <metadata
     id="metadata5">
    <rdf:RDF>
      <cc:Work
         rdf:about="">
        <dc:format>image/svg+xml</dc:format>
        <dc:type
           rdf:resource="http://purl.org/dc/dcmitype/StillImage" />
        <dc:title></dc:title>
      </cc:Work>
    </rdf:RDF>
  </metadata>
  <g
     inkscape:label="Layer 1"
     inkscape:groupmode="layer"
     id="layer1">
    <g
       id="g2723"
       style="fill:#273038;fill-opacity:1;stroke-width:0.37383392"
       transform="matrix(2.6749848,0,0,2.6749848,109.57907,-474.89718)">
      <g
         transform="matrix(0.48816661,0,0,0.48816661,-22.076257,309.14202)"
         id="g2194"
         style="opacity:1;fill:#273038;fill-opacity:1;stroke-width:0.76579165">
        <ellipse
           style="opacity:1;fill:#273038;fill-opacity:1;stroke:none;stroke-width:2.02615714;stroke-miterlimit:4;stroke-dasharray:none;stroke-dashoffset:0;stroke-opacity:1"
           id="ellipse2186"
           cx="-27.102533"
           cy="-37.001587"
           rx="6.9721975"
           ry="0.772089"
           transform="rotate(-8.7218583)" />
        <ellipse
           style="opacity:1;fill:#273038;fill-opacity:1;stroke:none;stroke-width:2.02615714;stroke-miterlimit:4;stroke-dasharray:none;stroke-dashoffset:0;stroke-opacity:1"
           id="ellipse2188"
           cx="-31.607344"
           cy="-23.356863"
           rx="1.9411162"
           ry="1.6175969" />
        <ellipse
           transform="rotate(-8.7218583)"
           ry="0.772089"
           rx="6.9721975"
           cy="-34.000984"
           cx="-27.562862"
           id="ellipse2190"
           style="opacity:1;fill:#273038;fill-opacity:1;stroke:none;stroke-width:2.02615714;stroke-miterlimit:4;stroke-dasharray:none;stroke-dashoffset:0;stroke-opacity:1" />
        <ellipse
           style="opacity:1;fill:#273038;fill-opacity:1;stroke:none;stroke-width:2.02615714;stroke-miterlimit:4;stroke-dasharray:none;stroke-dashoffset:0;stroke-opacity:1"
           id="ellipse2192"
           cx="-28.023182"
           cy="-31.000454"
           rx="6.9721975"
           ry="0.772089"
           transform="rotate(-8.7218583)" />
      </g>
      <g
         id="g2708"
         style="fill:#273038;fill-opacity:1;stroke-width:0.37383392">
        <g
           transform="matrix(0.55977755,0,0,0.55977755,-19.445621,311.65865)"
           aria-label="C"
           style="font-style:normal;font-variant:normal;font-weight:bold;font-stretch:normal;font-size:8.46666622px;line-height:1.25;font-family:'Al Bayan';-inkscape-font-specification:'Al Bayan, Bold';font-variant-ligatures:normal;font-variant-caps:normal;font-variant-numeric:normal;font-feature-settings:normal;text-align:start;letter-spacing:0px;word-spacing:7.9375px;writing-mode:lr-tb;text-anchor:start;opacity:1;fill:#273038;fill-opacity:1;stroke:none;stroke-width:0.17669559"
           id="g2198">
          <path
             inkscape:connector-curvature="0"
             d="m -35.792454,-41.087168 q 0,1.081852 0.329259,1.912839 0.32926,0.830988 0.870185,1.395432 0.548766,0.564445 1.254321,0.854506 0.713395,0.290062 1.473828,0.290062 0.587963,0 1.089691,-0.203827 0.509568,-0.203827 0.94858,-0.540926 0.446852,-0.344938 0.830988,-0.79179 0.384136,-0.454691 0.736913,-0.95642 l 1.144568,0.838827 q -0.368457,0.595803 -0.893704,1.144568 -0.517407,0.548766 -1.168086,0.972099 -0.650679,0.423333 -1.41895,0.674197 -0.768272,0.250865 -1.622778,0.250865 -1.442469,0 -2.657593,-0.415494 -1.207284,-0.423334 -2.093148,-1.191605 -0.878024,-0.768272 -1.371913,-1.842284 -0.493889,-1.074012 -0.493889,-2.391049 0,-0.846667 0.211666,-1.607099 0.211667,-0.768272 0.603642,-1.418951 0.399815,-0.650679 0.972099,-1.168086 0.572284,-0.525247 1.285679,-0.893704 0.721235,-0.368456 1.575741,-0.564444 0.854506,-0.195988 1.810926,-0.195988 0.964259,0 1.763889,0.227346 0.807469,0.219506 1.458148,0.62716 0.658518,0.399815 1.168086,0.95642 0.517407,0.556605 0.909383,1.215124 l -1.160247,0.807469 q -0.352778,-0.501729 -0.768272,-0.940741 -0.407654,-0.446852 -0.878024,-0.776111 -0.470371,-0.337099 -0.987778,-0.533087 -0.517408,-0.195987 -1.081852,-0.195987 -0.768272,0 -1.465988,0.290062 -0.697716,0.290061 -1.230802,0.854506 -0.525247,0.564444 -0.838827,1.395432 -0.305741,0.830987 -0.305741,1.920679 z"
             style="font-style:normal;font-variant:normal;font-weight:bold;font-stretch:normal;font-size:14.11111069px;font-family:'Bangla MN';-inkscape-font-specification:'Bangla MN, Bold';font-variant-ligatures:normal;font-variant-caps:normal;font-variant-numeric:normal;font-feature-settings:normal;text-align:start;writing-mode:lr-tb;text-anchor:start;fill:#273038;fill-opacity:1;stroke-width:0.17669559"
             id="path2196" />
        </g>
        <path
           style="opacity:1;fill:#273038;fill-opacity:1;stroke:none;stroke-width:0.98910218;stroke-miterlimit:4;stroke-dasharray:none;stroke-dashoffset:0;stroke-opacity:1"
           d="m -38.631052,278.86723 h 1.481392 l -0.740696,5.32513 z"
           id="rect2202"
           inkscape:connector-curvature="0"
           sodipodi:nodetypes="cccc" />
        <path
           sodipodi:nodetypes="cccc"
           inkscape:connector-curvature="0"
           id="path2205"
           d="m -45.943946,280.9001 1.282924,-0.53251 3.062017,4.87796 z"
           style="opacity:1;fill:#273038;fill-opacity:1;stroke:none;stroke-width:0.98910218;stroke-miterlimit:4;stroke-dasharray:none;stroke-dashoffset:0;stroke-opacity:1" />
        <path
           sodipodi:nodetypes="cccc"
           inkscape:connector-curvature="0"
           id="path2207"
           d="m -31.240488,280.36759 1.282924,0.53251 -4.34494,4.34545 z"
           style="opacity:1;fill:#273038;fill-opacity:1;stroke:none;stroke-width:0.98910218;stroke-miterlimit:4;stroke-dasharray:none;stroke-dashoffset:0;stroke-opacity:1" />
        <path
           style="opacity:1;fill:#273038;fill-opacity:1;stroke:none;stroke-width:0.98910218;stroke-miterlimit:4;stroke-dasharray:none;stroke-dashoffset:0;stroke-opacity:1"
           d="m -50.256617,285.7477 0.383418,-1.02874 6.962864,1.89262 z"
           id="path2217"
           inkscape:connector-curvature="0"
           sodipodi:nodetypes="cccc" />
        <path
           style="opacity:1;fill:#273038;fill-opacity:1;stroke:none;stroke-width:0.98910218;stroke-miterlimit:4;stroke-dasharray:none;stroke-dashoffset:0;stroke-opacity:1"
           d="m -25.912479,284.71896 0.383417,1.02874 -7.346281,0.86388 z"
           id="path2219"
           inkscape:connector-curvature="0"
           sodipodi:nodetypes="cccc" />
      </g>
    </g>
    <g
       id="g2930">
      <g
         style="opacity:1;fill:#273038;fill-opacity:1;stroke-width:0.76579165"
         id="g2733"
         transform="matrix(1.3058383,0,0,1.3058383,132.5468,352.05303)">
        <ellipse
           transform="rotate(-8.7218583)"
           ry="0.772089"
           rx="6.9721975"
           cy="-37.001587"
           cx="-27.102533"
           id="ellipse2725"
           style="opacity:1;fill:#273038;fill-opacity:1;stroke:none;stroke-width:2.02615714;stroke-miterlimit:4;stroke-dasharray:none;stroke-dashoffset:0;stroke-opacity:1" />
        <ellipse
           ry="1.6175969"
           rx="1.9411162"
           cy="-23.356863"
           cx="-31.607344"
           id="ellipse2727"
           style="opacity:1;fill:#273038;fill-opacity:1;stroke:none;stroke-width:2.02615714;stroke-miterlimit:4;stroke-dasharray:none;stroke-dashoffset:0;stroke-opacity:1" />
        <ellipse
           style="opacity:1;fill:#273038;fill-opacity:1;stroke:none;stroke-width:2.02615714;stroke-miterlimit:4;stroke-dasharray:none;stroke-dashoffset:0;stroke-opacity:1"
           id="ellipse2729"
           cx="-27.562862"
           cy="-34.000984"
           rx="6.9721975"
           ry="0.772089"
           transform="rotate(-8.7218583)" />
        <ellipse
           transform="rotate(-8.7218583)"
           ry="0.772089"
           rx="6.9721975"
           cy="-31.000454"
           cx="-28.023182"
           id="ellipse2731"
           style="opacity:1;fill:#273038;fill-opacity:1;stroke:none;stroke-width:2.02615714;stroke-miterlimit:4;stroke-dasharray:none;stroke-dashoffset:0;stroke-opacity:1" />
      </g>
      <g
         transform="matrix(1.4973964,0,0,1.4973964,139.58371,358.78498)"
         aria-label="C"
         style="font-style:normal;font-variant:normal;font-weight:bold;font-stretch:normal;font-size:8.46666622px;line-height:1.25;font-family:'Al Bayan';-inkscape-font-specification:'Al Bayan, Bold';font-variant-ligatures:normal;font-variant-caps:normal;font-variant-numeric:normal;font-feature-settings:normal;text-align:start;letter-spacing:0px;word-spacing:7.9375px;writing-mode:lr-tb;text-anchor:start;opacity:1;fill:#273038;fill-opacity:1;stroke:none;stroke-width:0.17669559"
         id="g2737">
        <path
           inkscape:connector-curvature="0"
           d="m -35.792454,-41.087168 q 0,1.081852 0.329259,1.912839 0.32926,0.830988 0.870185,1.395432 0.548766,0.564445 1.254321,0.854506 0.713395,0.290062 1.473828,0.290062 0.587963,0 1.089691,-0.203827 0.509568,-0.203827 0.94858,-0.540926 0.446852,-0.344938 0.830988,-0.79179 0.384136,-0.454691 0.736913,-0.95642 l 1.144568,0.838827 q -0.368457,0.595803 -0.893704,1.144568 -0.517407,0.548766 -1.168086,0.972099 -0.650679,0.423333 -1.41895,0.674197 -0.768272,0.250865 -1.622778,0.250865 -1.442469,0 -2.657593,-0.415494 -1.207284,-0.423334 -2.093148,-1.191605 -0.878024,-0.768272 -1.371913,-1.842284 -0.493889,-1.074012 -0.493889,-2.391049 0,-0.846667 0.211666,-1.607099 0.211667,-0.768272 0.603642,-1.418951 0.399815,-0.650679 0.972099,-1.168086 0.572284,-0.525247 1.285679,-0.893704 0.721235,-0.368456 1.575741,-0.564444 0.854506,-0.195988 1.810926,-0.195988 0.964259,0 1.763889,0.227346 0.807469,0.219506 1.458148,0.62716 0.658518,0.399815 1.168086,0.95642 0.517407,0.556605 0.909383,1.215124 l -1.160247,0.807469 q -0.352778,-0.501729 -0.768272,-0.940741 -0.407654,-0.446852 -0.878024,-0.776111 -0.470371,-0.337099 -0.987778,-0.533087 -0.517408,-0.195987 -1.081852,-0.195987 -0.768272,0 -1.465988,0.290062 -0.697716,0.290061 -1.230802,0.854506 -0.525247,0.564444 -0.838827,1.395432 -0.305741,0.830987 -0.305741,1.920679 z"
           style="font-style:normal;font-variant:normal;font-weight:bold;font-stretch:normal;font-size:14.11111069px;font-family:'Bangla MN';-inkscape-font-specification:'Bangla MN, Bold';font-variant-ligatures:normal;font-variant-caps:normal;font-variant-numeric:normal;font-feature-settings:normal;text-align:start;writing-mode:lr-tb;text-anchor:start;fill:#273038;fill-opacity:1;stroke-width:0.17669559"
           id="path2735" />
      </g>
      <path
         style="opacity:1;fill:#273038;fill-opacity:1;stroke:none;stroke-width:2.64583325;stroke-miterlimit:4;stroke-dasharray:none;stroke-dashoffset:0;stroke-opacity:1"
         d="m 88.262971,271.06843 h 3.9627 l -1.98135,14.24464 z"
         id="path2739"
         inkscape:connector-curvature="0"
         sodipodi:nodetypes="cccc" />
      <path
         sodipodi:nodetypes="cccc"
         inkscape:connector-curvature="0"
         id="path2741"
         d="m 68.701091,276.50633 3.431802,-1.42446 8.190848,13.04847 z"
         style="opacity:1;fill:#273038;fill-opacity:1;stroke:none;stroke-width:2.64583325;stroke-miterlimit:4;stroke-dasharray:none;stroke-dashoffset:0;stroke-opacity:1" />
      <path
         sodipodi:nodetypes="cccc"
         inkscape:connector-curvature="0"
         id="path2743"
         d="m 108.03262,275.08187 3.4318,1.42446 -11.622649,11.62401 z"
         style="opacity:1;fill:#273038;fill-opacity:1;stroke:none;stroke-width:2.64583325;stroke-miterlimit:4;stroke-dasharray:none;stroke-dashoffset:0;stroke-opacity:1" />
      <path
         style="opacity:1;fill:#273038;fill-opacity:1;stroke:none;stroke-width:2.64583325;stroke-miterlimit:4;stroke-dasharray:none;stroke-dashoffset:0;stroke-opacity:1"
         d="m 57.164761,289.47358 1.025638,-2.75186 18.625555,5.06273 z"
         id="path2745"
         inkscape:connector-curvature="0"
         sodipodi:nodetypes="cccc" />
      <text
         id="text2775"
         y="303.38733"
         x="99.814751"
         style="font-style:normal;font-variant:normal;font-weight:bold;font-stretch:normal;font-size:5.42818546px;line-height:1.25;font-family:'Bangla MN';-inkscape-font-specification:'Bangla MN, Bold';font-variant-ligatures:normal;font-variant-caps:normal;font-variant-numeric:normal;font-feature-settings:normal;text-align:start;letter-spacing:0px;word-spacing:8.72386932px;writing-mode:lr-tb;text-anchor:start;fill:#000000;fill-opacity:1;stroke:none;stroke-width:0.26458332"
         xml:space="preserve"><tspan
           style="font-style:normal;font-variant:normal;font-weight:bold;font-stretch:normal;font-size:12.40728188px;font-family:'Bangla MN';-inkscape-font-specification:'Bangla MN, Bold';font-variant-ligatures:normal;font-variant-caps:normal;font-variant-numeric:normal;font-feature-settings:normal;text-align:start;writing-mode:lr-tb;text-anchor:start;stroke-width:0.26458332"
           y="303.38733"
           x="99.814751"
           id="tspan2773"
           sodipodi:role="line">areerativity</tspan></text>
    </g>
    <g
       transform="matrix(2.6749848,0,0,2.6749848,109.57907,-411.92604)"
       style="fill:#045fd6;fill-opacity:1;stroke-width:0.37383392"
       id="g2848">
      <g
         style="opacity:1;fill:#045fd6;fill-opacity:1;stroke-width:0.76579165"
         id="g2830"
         transform="matrix(0.48816661,0,0,0.48816661,-22.076257,309.14202)">
        <ellipse
           transform="rotate(-8.7218583)"
           ry="0.772089"
           rx="6.9721975"
           cy="-37.001587"
           cx="-27.102533"
           id="ellipse2822"
           style="opacity:1;fill:#045fd6;fill-opacity:1;stroke:none;stroke-width:2.02615714;stroke-miterlimit:4;stroke-dasharray:none;stroke-dashoffset:0;stroke-opacity:1" />
        <ellipse
           ry="1.6175969"
           rx="1.9411162"
           cy="-23.356863"
           cx="-31.607344"
           id="ellipse2824"
           style="opacity:1;fill:#045fd6;fill-opacity:1;stroke:none;stroke-width:2.02615714;stroke-miterlimit:4;stroke-dasharray:none;stroke-dashoffset:0;stroke-opacity:1" />
        <ellipse
           style="opacity:1;fill:#045fd6;fill-opacity:1;stroke:none;stroke-width:2.02615714;stroke-miterlimit:4;stroke-dasharray:none;stroke-dashoffset:0;stroke-opacity:1"
           id="ellipse2826"
           cx="-27.562862"
           cy="-34.000984"
           rx="6.9721975"
           ry="0.772089"
           transform="rotate(-8.7218583)" />
        <ellipse
           transform="rotate(-8.7218583)"
           ry="0.772089"
           rx="6.9721975"
           cy="-31.000454"
           cx="-28.023182"
           id="ellipse2828"
           style="opacity:1;fill:#045fd6;fill-opacity:1;stroke:none;stroke-width:2.02615714;stroke-miterlimit:4;stroke-dasharray:none;stroke-dashoffset:0;stroke-opacity:1" />
      </g>
      <g
         style="fill:#045fd6;fill-opacity:1;stroke-width:0.37383392"
         id="g2846">
        <g
           id="g2834"
           style="font-style:normal;font-variant:normal;font-weight:bold;font-stretch:normal;font-size:8.46666622px;line-height:1.25;font-family:'Al Bayan';-inkscape-font-specification:'Al Bayan, Bold';font-variant-ligatures:normal;font-variant-caps:normal;font-variant-numeric:normal;font-feature-settings:normal;text-align:start;letter-spacing:0px;word-spacing:7.9375px;writing-mode:lr-tb;text-anchor:start;opacity:1;fill:#045fd6;fill-opacity:1;stroke:none;stroke-width:0.17669559"
           aria-label="C"
           transform="matrix(0.55977755,0,0,0.55977755,-19.445621,311.65865)">
          <path
             id="path2832"
             style="font-style:normal;font-variant:normal;font-weight:bold;font-stretch:normal;font-size:14.11111069px;font-family:'Bangla MN';-inkscape-font-specification:'Bangla MN, Bold';font-variant-ligatures:normal;font-variant-caps:normal;font-variant-numeric:normal;font-feature-settings:normal;text-align:start;writing-mode:lr-tb;text-anchor:start;fill:#045fd6;fill-opacity:1;stroke-width:0.17669559"
             d="m -35.792454,-41.087168 q 0,1.081852 0.329259,1.912839 0.32926,0.830988 0.870185,1.395432 0.548766,0.564445 1.254321,0.854506 0.713395,0.290062 1.473828,0.290062 0.587963,0 1.089691,-0.203827 0.509568,-0.203827 0.94858,-0.540926 0.446852,-0.344938 0.830988,-0.79179 0.384136,-0.454691 0.736913,-0.95642 l 1.144568,0.838827 q -0.368457,0.595803 -0.893704,1.144568 -0.517407,0.548766 -1.168086,0.972099 -0.650679,0.423333 -1.41895,0.674197 -0.768272,0.250865 -1.622778,0.250865 -1.442469,0 -2.657593,-0.415494 -1.207284,-0.423334 -2.093148,-1.191605 -0.878024,-0.768272 -1.371913,-1.842284 -0.493889,-1.074012 -0.493889,-2.391049 0,-0.846667 0.211666,-1.607099 0.211667,-0.768272 0.603642,-1.418951 0.399815,-0.650679 0.972099,-1.168086 0.572284,-0.525247 1.285679,-0.893704 0.721235,-0.368456 1.575741,-0.564444 0.854506,-0.195988 1.810926,-0.195988 0.964259,0 1.763889,0.227346 0.807469,0.219506 1.458148,0.62716 0.658518,0.399815 1.168086,0.95642 0.517407,0.556605 0.909383,1.215124 l -1.160247,0.807469 q -0.352778,-0.501729 -0.768272,-0.940741 -0.407654,-0.446852 -0.878024,-0.776111 -0.470371,-0.337099 -0.987778,-0.533087 -0.517408,-0.195987 -1.081852,-0.195987 -0.768272,0 -1.465988,0.290062 -0.697716,0.290061 -1.230802,0.854506 -0.525247,0.564444 -0.838827,1.395432 -0.305741,0.830987 -0.305741,1.920679 z"
             inkscape:connector-curvature="0" />
        </g>
        <path
           sodipodi:nodetypes="cccc"
           inkscape:connector-curvature="0"
           id="path2836"
           d="m -38.631052,278.86723 h 1.481392 l -0.740696,5.32513 z"
           style="opacity:1;fill:#045fd6;fill-opacity:1;stroke:none;stroke-width:0.98910218;stroke-miterlimit:4;stroke-dasharray:none;stroke-dashoffset:0;stroke-opacity:1" />
        <path
           style="opacity:1;fill:#045fd6;fill-opacity:1;stroke:none;stroke-width:0.98910218;stroke-miterlimit:4;stroke-dasharray:none;stroke-dashoffset:0;stroke-opacity:1"
           d="m -45.943946,280.9001 1.282924,-0.53251 3.062017,4.87796 z"
           id="path2838"
           inkscape:connector-curvature="0"
           sodipodi:nodetypes="cccc" />
        <path
           style="opacity:1;fill:#045fd6;fill-opacity:1;stroke:none;stroke-width:0.98910218;stroke-miterlimit:4;stroke-dasharray:none;stroke-dashoffset:0;stroke-opacity:1"
           d="m -31.240488,280.36759 1.282924,0.53251 -4.34494,4.34545 z"
           id="path2840"
           inkscape:connector-curvature="0"
           sodipodi:nodetypes="cccc" />
        <path
           sodipodi:nodetypes="cccc"
           inkscape:connector-curvature="0"
           id="path2842"
           d="m -50.256617,285.7477 0.383418,-1.02874 6.962864,1.89262 z"
           style="opacity:1;fill:#045fd6;fill-opacity:1;stroke:none;stroke-width:0.98910218;stroke-miterlimit:4;stroke-dasharray:none;stroke-dashoffset:0;stroke-opacity:1" />
        <path
           sodipodi:nodetypes="cccc"
           inkscape:connector-curvature="0"
           id="path2844"
           d="m -25.912479,284.71896 0.383417,1.02874 -7.346281,0.86388 z"
           style="opacity:1;fill:#045fd6;fill-opacity:1;stroke:none;stroke-width:0.98910218;stroke-miterlimit:4;stroke-dasharray:none;stroke-dashoffset:0;stroke-opacity:1" />
      </g>
    </g>
    <g
       id="g2946">
      <g
         style="fill:#045fd6;fill-opacity:1"
         id="g2902">
        <g
           style="opacity:1;fill:#045fd6;fill-opacity:1;stroke-width:0.76579165"
           id="g2858"
           transform="matrix(1.3058383,0,0,1.3058383,132.5468,415.02416)">
          <ellipse
             transform="rotate(-8.7218583)"
             ry="0.772089"
             rx="6.9721975"
             cy="-37.001587"
             cx="-27.102533"
             id="ellipse2850"
             style="opacity:1;fill:#045fd6;fill-opacity:1;stroke:none;stroke-width:2.02615714;stroke-miterlimit:4;stroke-dasharray:none;stroke-dashoffset:0;stroke-opacity:1" />
          <ellipse
             ry="1.6175969"
             rx="1.9411162"
             cy="-23.356863"
             cx="-31.607344"
             id="ellipse2852"
             style="opacity:1;fill:#045fd6;fill-opacity:1;stroke:none;stroke-width:2.02615714;stroke-miterlimit:4;stroke-dasharray:none;stroke-dashoffset:0;stroke-opacity:1" />
          <ellipse
             style="opacity:1;fill:#045fd6;fill-opacity:1;stroke:none;stroke-width:2.02615714;stroke-miterlimit:4;stroke-dasharray:none;stroke-dashoffset:0;stroke-opacity:1"
             id="ellipse2854"
             cx="-27.562862"
             cy="-34.000984"
             rx="6.9721975"
             ry="0.772089"
             transform="rotate(-8.7218583)" />
          <ellipse
             transform="rotate(-8.7218583)"
             ry="0.772089"
             rx="6.9721975"
             cy="-31.000454"
             cx="-28.023182"
             id="ellipse2856"
             style="opacity:1;fill:#045fd6;fill-opacity:1;stroke:none;stroke-width:2.02615714;stroke-miterlimit:4;stroke-dasharray:none;stroke-dashoffset:0;stroke-opacity:1" />
        </g>
        <g
           transform="matrix(1.4973964,0,0,1.4973964,139.58371,421.75611)"
           aria-label="C"
           style="font-style:normal;font-variant:normal;font-weight:bold;font-stretch:normal;font-size:8.46666622px;line-height:1.25;font-family:'Al Bayan';-inkscape-font-specification:'Al Bayan, Bold';font-variant-ligatures:normal;font-variant-caps:normal;font-variant-numeric:normal;font-feature-settings:normal;text-align:start;letter-spacing:0px;word-spacing:7.9375px;writing-mode:lr-tb;text-anchor:start;opacity:1;fill:#045fd6;fill-opacity:1;stroke:none;stroke-width:0.17669559"
           id="g2862">
          <path
             inkscape:connector-curvature="0"
             d="m -35.792454,-41.087168 q 0,1.081852 0.329259,1.912839 0.32926,0.830988 0.870185,1.395432 0.548766,0.564445 1.254321,0.854506 0.713395,0.290062 1.473828,0.290062 0.587963,0 1.089691,-0.203827 0.509568,-0.203827 0.94858,-0.540926 0.446852,-0.344938 0.830988,-0.79179 0.384136,-0.454691 0.736913,-0.95642 l 1.144568,0.838827 q -0.368457,0.595803 -0.893704,1.144568 -0.517407,0.548766 -1.168086,0.972099 -0.650679,0.423333 -1.41895,0.674197 -0.768272,0.250865 -1.622778,0.250865 -1.442469,0 -2.657593,-0.415494 -1.207284,-0.423334 -2.093148,-1.191605 -0.878024,-0.768272 -1.371913,-1.842284 -0.493889,-1.074012 -0.493889,-2.391049 0,-0.846667 0.211666,-1.607099 0.211667,-0.768272 0.603642,-1.418951 0.399815,-0.650679 0.972099,-1.168086 0.572284,-0.525247 1.285679,-0.893704 0.721235,-0.368456 1.575741,-0.564444 0.854506,-0.195988 1.810926,-0.195988 0.964259,0 1.763889,0.227346 0.807469,0.219506 1.458148,0.62716 0.658518,0.399815 1.168086,0.95642 0.517407,0.556605 0.909383,1.215124 l -1.160247,0.807469 q -0.352778,-0.501729 -0.768272,-0.940741 -0.407654,-0.446852 -0.878024,-0.776111 -0.470371,-0.337099 -0.987778,-0.533087 -0.517408,-0.195987 -1.081852,-0.195987 -0.768272,0 -1.465988,0.290062 -0.697716,0.290061 -1.230802,0.854506 -0.525247,0.564444 -0.838827,1.395432 -0.305741,0.830987 -0.305741,1.920679 z"
             style="font-style:normal;font-variant:normal;font-weight:bold;font-stretch:normal;font-size:14.11111069px;font-family:'Bangla MN';-inkscape-font-specification:'Bangla MN, Bold';font-variant-ligatures:normal;font-variant-caps:normal;font-variant-numeric:normal;font-feature-settings:normal;text-align:start;writing-mode:lr-tb;text-anchor:start;fill:#045fd6;fill-opacity:1;stroke-width:0.17669559"
             id="path2860" />
        </g>
        <path
           style="opacity:1;fill:#045fd6;fill-opacity:1;stroke:none;stroke-width:2.64583325;stroke-miterlimit:4;stroke-dasharray:none;stroke-dashoffset:0;stroke-opacity:1"
           d="m 88.262971,334.03956 h 3.9627 l -1.98135,14.24464 z"
           id="path2864"
           inkscape:connector-curvature="0"
           sodipodi:nodetypes="cccc" />
        <path
           sodipodi:nodetypes="cccc"
           inkscape:connector-curvature="0"
           id="path2866"
           d="m 68.701091,339.47746 3.431802,-1.42446 8.190848,13.04847 z"
           style="opacity:1;fill:#045fd6;fill-opacity:1;stroke:none;stroke-width:2.64583325;stroke-miterlimit:4;stroke-dasharray:none;stroke-dashoffset:0;stroke-opacity:1" />
        <path
           sodipodi:nodetypes="cccc"
           inkscape:connector-curvature="0"
           id="path2868"
           d="m 108.03262,338.053 3.4318,1.42446 -11.622649,11.62401 z"
           style="opacity:1;fill:#045fd6;fill-opacity:1;stroke:none;stroke-width:2.64583325;stroke-miterlimit:4;stroke-dasharray:none;stroke-dashoffset:0;stroke-opacity:1" />
        <path
           style="opacity:1;fill:#045fd6;fill-opacity:1;stroke:none;stroke-width:2.64583325;stroke-miterlimit:4;stroke-dasharray:none;stroke-dashoffset:0;stroke-opacity:1"
           d="m 57.164761,352.44471 1.025638,-2.75186 18.625555,5.06273 z"
           id="path2870"
           inkscape:connector-curvature="0"
           sodipodi:nodetypes="cccc" />
      </g>
      <text
         xml:space="preserve"
         style="font-style:normal;font-variant:normal;font-weight:bold;font-stretch:normal;font-size:5.42818546px;line-height:1.25;font-family:'Bangla MN';-inkscape-font-specification:'Bangla MN, Bold';font-variant-ligatures:normal;font-variant-caps:normal;font-variant-numeric:normal;font-feature-settings:normal;text-align:start;letter-spacing:0px;word-spacing:8.72386932px;writing-mode:lr-tb;text-anchor:start;fill:#000000;fill-opacity:1;stroke:none;stroke-width:0.26458332"
         x="99.814751"
         y="366.35846"
         id="text2874"><tspan
           sodipodi:role="line"
           id="tspan2872"
           x="99.814751"
           y="366.35846"
           style="font-style:normal;font-variant:normal;font-weight:bold;font-stretch:normal;font-size:12.40728188px;font-family:'Bangla MN';-inkscape-font-specification:'Bangla MN, Bold';font-variant-ligatures:normal;font-variant-caps:normal;font-variant-numeric:normal;font-feature-settings:normal;text-align:start;writing-mode:lr-tb;text-anchor:start;stroke-width:0.26458332">areerativity</tspan></text>
    </g>
    <g
       id="g3327"
       inkscape:export-xdpi="96"
       inkscape:export-ydpi="96"
       transform="translate(-41.55728,-24.838834)">
      <rect
         y="424.15442"
         x="26.417381"
         height="68.791664"
         width="68.791664"
         id="rect2976"
         style="opacity:1;fill:#045fd6;fill-opacity:1;stroke:none;stroke-width:2.64583325;stroke-miterlimit:4;stroke-dasharray:none;stroke-dashoffset:0;stroke-opacity:1" />
      <g
         style="stroke-width:0.70425075"
         transform="matrix(1.4199487,0,0,1.4199487,-25.538435,-203.63429)"
         id="g3167">
        <g
           style="opacity:1;fill:#ffffff;fill-opacity:1;stroke-width:0.58080947"
           id="g2956"
           transform="matrix(1.2125334,0,0,1.2125334,100.09926,509.02792)">
          <ellipse
             transform="rotate(-8.7218583)"
             ry="0.772089"
             rx="6.9721975"
             cy="-37.001587"
             cx="-27.102533"
             id="ellipse2948"
             style="opacity:1;fill:#ffffff;fill-opacity:1;stroke:none;stroke-width:1.53672504;stroke-miterlimit:4;stroke-dasharray:none;stroke-dashoffset:0;stroke-opacity:1" />
          <ellipse
             ry="1.6175969"
             rx="1.9411162"
             cy="-23.356863"
             cx="-31.607344"
             id="ellipse2950"
             style="opacity:1;fill:#ffffff;fill-opacity:1;stroke:none;stroke-width:1.53672504;stroke-miterlimit:4;stroke-dasharray:none;stroke-dashoffset:0;stroke-opacity:1" />
          <ellipse
             style="opacity:1;fill:#ffffff;fill-opacity:1;stroke:none;stroke-width:1.53672504;stroke-miterlimit:4;stroke-dasharray:none;stroke-dashoffset:0;stroke-opacity:1"
             id="ellipse2952"
             cx="-27.562862"
             cy="-34.000984"
             rx="6.9721975"
             ry="0.772089"
             transform="rotate(-8.7218583)" />
          <ellipse
             transform="rotate(-8.7218583)"
             ry="0.772089"
             rx="6.9721975"
             cy="-31.000454"
             cx="-28.023182"
             id="ellipse2954"
             style="opacity:1;fill:#ffffff;fill-opacity:1;stroke:none;stroke-width:1.53672504;stroke-miterlimit:4;stroke-dasharray:none;stroke-dashoffset:0;stroke-opacity:1" />
        </g>
        <g
           transform="matrix(1.3904044,0,0,1.3904044,106.63337,515.27886)"
           aria-label="C"
           style="font-style:normal;font-variant:normal;font-weight:bold;font-stretch:normal;font-size:8.46666622px;line-height:1.25;font-family:'Al Bayan';-inkscape-font-specification:'Al Bayan, Bold';font-variant-ligatures:normal;font-variant-caps:normal;font-variant-numeric:normal;font-feature-settings:normal;text-align:start;letter-spacing:0px;word-spacing:7.9375px;writing-mode:lr-tb;text-anchor:start;opacity:1;fill:#ffffff;fill-opacity:1;stroke:none;stroke-width:0.13401356"
           id="g2960">
          <path
             inkscape:connector-curvature="0"
             d="m -35.792454,-41.087168 q 0,1.081852 0.329259,1.912839 0.32926,0.830988 0.870185,1.395432 0.548766,0.564445 1.254321,0.854506 0.713395,0.290062 1.473828,0.290062 0.587963,0 1.089691,-0.203827 0.509568,-0.203827 0.94858,-0.540926 0.446852,-0.344938 0.830988,-0.79179 0.384136,-0.454691 0.736913,-0.95642 l 1.144568,0.838827 q -0.368457,0.595803 -0.893704,1.144568 -0.517407,0.548766 -1.168086,0.972099 -0.650679,0.423333 -1.41895,0.674197 -0.768272,0.250865 -1.622778,0.250865 -1.442469,0 -2.657593,-0.415494 -1.207284,-0.423334 -2.093148,-1.191605 -0.878024,-0.768272 -1.371913,-1.842284 -0.493889,-1.074012 -0.493889,-2.391049 0,-0.846667 0.211666,-1.607099 0.211667,-0.768272 0.603642,-1.418951 0.399815,-0.650679 0.972099,-1.168086 0.572284,-0.525247 1.285679,-0.893704 0.721235,-0.368456 1.575741,-0.564444 0.854506,-0.195988 1.810926,-0.195988 0.964259,0 1.763889,0.227346 0.807469,0.219506 1.458148,0.62716 0.658518,0.399815 1.168086,0.95642 0.517407,0.556605 0.909383,1.215124 l -1.160247,0.807469 q -0.352778,-0.501729 -0.768272,-0.940741 -0.407654,-0.446852 -0.878024,-0.776111 -0.470371,-0.337099 -0.987778,-0.533087 -0.517408,-0.195987 -1.081852,-0.195987 -0.768272,0 -1.465988,0.290062 -0.697716,0.290061 -1.230802,0.854506 -0.525247,0.564444 -0.838827,1.395432 -0.305741,0.830987 -0.305741,1.920679 z"
             style="font-style:normal;font-variant:normal;font-weight:bold;font-stretch:normal;font-size:14.11111069px;font-family:'Bangla MN';-inkscape-font-specification:'Bangla MN, Bold';font-variant-ligatures:normal;font-variant-caps:normal;font-variant-numeric:normal;font-feature-settings:normal;text-align:start;writing-mode:lr-tb;text-anchor:start;fill:#ffffff;fill-opacity:1;stroke-width:0.13401356"
             id="path2958" />
        </g>
      </g>
    </g>
    <g
       id="g3389"
       inkscape:export-xdpi="96"
       inkscape:export-ydpi="96"
       transform="translate(-41.55728,-24.838834)">
      <rect
         style="opacity:0;fill:#045fd6;fill-opacity:1;stroke:none;stroke-width:2.64583325;stroke-miterlimit:4;stroke-dasharray:none;stroke-dashoffset:0;stroke-opacity:1"
         id="rect3329"
         width="68.791664"
         height="68.791664"
         x="106.85076"
         y="424.15442" />
      <g
         id="g3345"
         transform="matrix(1.4199487,0,0,1.4199487,54.894943,-203.63429)"
         style="stroke-width:0.70425075">
        <g
           transform="matrix(1.2125334,0,0,1.2125334,100.09926,509.02792)"
           id="g3339"
           style="opacity:1;fill:#ffffff;fill-opacity:1;stroke-width:0.58080947">
          <ellipse
             style="opacity:1;fill:#ffffff;fill-opacity:1;stroke:none;stroke-width:1.53672504;stroke-miterlimit:4;stroke-dasharray:none;stroke-dashoffset:0;stroke-opacity:1"
             id="ellipse3331"
             cx="-27.102533"
             cy="-37.001587"
             rx="6.9721975"
             ry="0.772089"
             transform="rotate(-8.7218583)" />
          <ellipse
             style="opacity:1;fill:#ffffff;fill-opacity:1;stroke:none;stroke-width:1.53672504;stroke-miterlimit:4;stroke-dasharray:none;stroke-dashoffset:0;stroke-opacity:1"
             id="ellipse3333"
             cx="-31.607344"
             cy="-23.356863"
             rx="1.9411162"
             ry="1.6175969" />
          <ellipse
             transform="rotate(-8.7218583)"
             ry="0.772089"
             rx="6.9721975"
             cy="-34.000984"
             cx="-27.562862"
             id="ellipse3335"
             style="opacity:1;fill:#ffffff;fill-opacity:1;stroke:none;stroke-width:1.53672504;stroke-miterlimit:4;stroke-dasharray:none;stroke-dashoffset:0;stroke-opacity:1" />
          <ellipse
             style="opacity:1;fill:#ffffff;fill-opacity:1;stroke:none;stroke-width:1.53672504;stroke-miterlimit:4;stroke-dasharray:none;stroke-dashoffset:0;stroke-opacity:1"
             id="ellipse3337"
             cx="-28.023182"
             cy="-31.000454"
             rx="6.9721975"
             ry="0.772089"
             transform="rotate(-8.7218583)" />
        </g>
        <g
           id="g3343"
           style="font-style:normal;font-variant:normal;font-weight:bold;font-stretch:normal;font-size:8.46666622px;line-height:1.25;font-family:'Al Bayan';-inkscape-font-specification:'Al Bayan, Bold';font-variant-ligatures:normal;font-variant-caps:normal;font-variant-numeric:normal;font-feature-settings:normal;text-align:start;letter-spacing:0px;word-spacing:7.9375px;writing-mode:lr-tb;text-anchor:start;opacity:1;fill:#ffffff;fill-opacity:1;stroke:none;stroke-width:0.13401356"
           aria-label="C"
           transform="matrix(1.3904044,0,0,1.3904044,106.63337,515.27886)">
          <path
             id="path3341"
             style="font-style:normal;font-variant:normal;font-weight:bold;font-stretch:normal;font-size:14.11111069px;font-family:'Bangla MN';-inkscape-font-specification:'Bangla MN, Bold';font-variant-ligatures:normal;font-variant-caps:normal;font-variant-numeric:normal;font-feature-settings:normal;text-align:start;writing-mode:lr-tb;text-anchor:start;fill:#ffffff;fill-opacity:1;stroke-width:0.13401356"
             d="m -35.792454,-41.087168 q 0,1.081852 0.329259,1.912839 0.32926,0.830988 0.870185,1.395432 0.548766,0.564445 1.254321,0.854506 0.713395,0.290062 1.473828,0.290062 0.587963,0 1.089691,-0.203827 0.509568,-0.203827 0.94858,-0.540926 0.446852,-0.344938 0.830988,-0.79179 0.384136,-0.454691 0.736913,-0.95642 l 1.144568,0.838827 q -0.368457,0.595803 -0.893704,1.144568 -0.517407,0.548766 -1.168086,0.972099 -0.650679,0.423333 -1.41895,0.674197 -0.768272,0.250865 -1.622778,0.250865 -1.442469,0 -2.657593,-0.415494 -1.207284,-0.423334 -2.093148,-1.191605 -0.878024,-0.768272 -1.371913,-1.842284 -0.493889,-1.074012 -0.493889,-2.391049 0,-0.846667 0.211666,-1.607099 0.211667,-0.768272 0.603642,-1.418951 0.399815,-0.650679 0.972099,-1.168086 0.572284,-0.525247 1.285679,-0.893704 0.721235,-0.368456 1.575741,-0.564444 0.854506,-0.195988 1.810926,-0.195988 0.964259,0 1.763889,0.227346 0.807469,0.219506 1.458148,0.62716 0.658518,0.399815 1.168086,0.95642 0.517407,0.556605 0.909383,1.215124 l -1.160247,0.807469 q -0.352778,-0.501729 -0.768272,-0.940741 -0.407654,-0.446852 -0.878024,-0.776111 -0.470371,-0.337099 -0.987778,-0.533087 -0.517408,-0.195987 -1.081852,-0.195987 -0.768272,0 -1.465988,0.290062 -0.697716,0.290061 -1.230802,0.854506 -0.525247,0.564444 -0.838827,1.395432 -0.305741,0.830987 -0.305741,1.920679 z"
             inkscape:connector-curvature="0" />
        </g>
      </g>
    </g>
  </g>
</svg>
